PathFileType	4	(X/Y/Z)	C:\Users\mayra\OneDrive - Universitat Pompeu Fabra\PhD_Mayra\OpenSim\aurel\ID_04_Walking_14.trc
DataRate	CameraRate	NumFrames	NumMarkers	Units	OrigDataRate	OrigDataStartFrame	OrigNumFrames
250.00	250.00	13	18	mm	250.00	163	1846
Frame#	Time	r.should			l.should			c7			r.asis			l.asis			sacrum			r.bar1			l.bar1			r.knee1			l.knee1			r.bar2			r.mall			l.bar2			l.mall			r.met			r.heel			l.heel			l.met			
		X1	Y1	Z1	X2	Y2	Z2	X3	Y3	Z3	X4	Y4	Z4	X5	Y5	Z5	X6	Y6	Z6	X7	Y7	Z7	X8	Y8	Z8	X9	Y9	Z9	X10	Y10	Z10	X11	Y11	Z11	X12	Y12	Z12	X13	Y13	Z13	X14	Y14	Z14	X15	Y15	Z15	X16	Y16	Z16	X17	Y17	Z17	X18	Y18	Z18	

1113	4.452000	-141.760141	1233.663082	381.712615	-129.239172	1249.241829	109.350055	-214.882031	1308.890820	238.161087	-52.019306	860.766351	361.529529	-50.065000	851.640105	126.479387	-291.955471	907.065868	232.033759	-151.305162	779.354453	446.685433	-147.062555	756.531119	48.371151	3.591612	473.122358	378.383815	-179.684281	456.836581	131.365612	-1.608731	409.756333	381.721884	-3.439069	75.263619	352.897525	-204.665750	384.503961	138.695896	-273.956418	68.974555	183.880359	138.072073	61.371833	351.074576	-50.496187	60.925432	297.822863	-332.420647	63.566275	220.146984	-146.515369	40.318273	215.517208	
1114	4.456000	-138.011888	1232.887030	382.343233	-124.943428	1248.735428	109.333776	-210.575223	1308.348179	238.130659	-47.445022	860.112131	361.372679	-45.961387	851.080537	126.236394	-287.588626	906.554222	232.372299	-145.041030	779.096663	447.268426	-143.482000	756.163478	48.223488	7.032187	471.983641	378.408641	-177.509204	456.640363	131.398261	1.108898	408.290952	380.619556	9.575041	74.273437	352.942288	-202.865273	384.406894	138.750598	-273.742050	69.140688	183.975577	151.774332	63.085169	351.045012	-37.009511	59.172250	297.335029	-332.212538	63.977681	220.269591	-146.449149	40.283032	215.551093	
1115	4.460000	-133.496046	1232.246518	382.113755	-120.603107	1248.210907	109.359622	-206.269398	1307.799220	238.122821	-42.838033	859.470904	361.258745	-41.819986	850.466549	125.944242	-283.204794	906.003952	232.681140	-139.461569	778.732836	447.786391	-139.897853	755.745590	48.102587	10.416934	470.794976	378.471017	-175.298974	456.432402	131.419837	5.059687	407.014966	380.314410	23.379009	73.663905	353.519976	-201.075703	384.323984	138.802767	-273.630917	69.623768	183.665410	165.168181	64.902432	350.955337	-23.626542	57.609778	296.951771	-331.997484	64.410903	220.411912	-146.374777	40.253550	215.579957	
1116	4.464000	-128.888920	1231.736422	381.747395	-116.225012	1247.665882	109.392069	-201.947778	1307.216644	238.120079	-38.231701	858.862638	361.185312	-37.618615	849.877954	125.713989	-278.774083	905.425489	233.006194	-134.793428	778.238356	448.210627	-136.283711	755.305409	48.026375	13.744570	469.537020	378.576249	-173.075289	456.235379	131.450757	9.342732	405.778468	380.251169	38.119294	73.567972	355.004847	-199.228972	384.238958	138.848901	-273.728967	70.581555	182.859302	178.240240	66.796936	350.820541	-10.464309	56.297395	296.532512	-331.795752	64.885244	220.555782	-146.277487	40.214129	215.591043	
1117	4.468000	-125.123009	1231.019497	382.367849	-111.857973	1247.114420	109.430157	-197.623253	1306.599140	238.128632	-33.609003	858.233273	361.175418	-33.553135	849.246860	125.500873	-274.314344	904.787421	233.305961	-131.263256	777.588665	448.512524	-132.687271	754.842937	47.967501	17.060937	468.218565	378.712714	-170.814961	456.035882	131.501943	14.437518	404.708773	380.773276	51.081315	73.200792	355.177939	-197.352022	384.139359	138.901889	-273.596704	70.982926	182.714060	191.024870	68.794906	350.636899	2.383490	55.213951	296.090007	-331.606448	65.379702	220.686212	-146.144450	40.161066	215.556443	
1118	4.472000	-120.677397	1230.419397	382.198632	-107.534811	1246.550083	109.465957	-193.316609	1305.976629	238.159105	-28.906133	857.655942	361.166120	-29.345749	848.714888	125.296503	-269.823015	904.130578	233.618900	-128.371745	776.833832	448.692828	-129.614025	754.335701	47.541998	20.324919	466.860086	378.889740	-168.504164	455.815613	131.539673	20.416250	403.904796	381.930172	63.381031	72.901934	355.020165	-195.489392	384.024709	138.960317	-273.399055	71.237184	182.743311	203.498065	70.894673	350.400001	15.012780	54.235999	295.650363	-331.412613	65.861277	220.807955	-146.030709	40.145040	215.465844	
1119	4.476000	-115.799911	1229.934931	381.570280	-103.158742	1245.995760	109.517269	-189.002693	1305.357218	238.195330	-24.225468	857.079029	361.183405	-25.125187	848.164022	125.116691	-265.319943	903.444529	233.923987	-124.061324	776.207983	448.888242	-127.104938	753.795505	46.751961	23.542646	465.467185	379.086137	-166.163012	455.587417	131.563261	23.868460	402.595878	381.436050	73.937580	72.519973	353.490919	-193.585217	383.911997	139.012426	-273.171246	71.468540	182.792097	215.598881	73.102549	350.121319	27.339585	53.449407	295.200735	-331.213623	66.357724	220.931694	-146.031857	40.275097	215.332299	
1120	4.480000	-111.629657	1229.239941	381.839037	-98.742291	1245.425582	109.605655	-184.703618	1304.732084	238.255158	-19.567784	856.502354	361.240327	-20.817108	847.676218	124.873132	-260.798484	902.736425	234.221771	-119.910255	775.599778	449.194849	-123.450056	753.354669	46.773512	26.745791	464.025199	379.299492	-163.779199	455.363750	131.589457	25.825733	400.988936	380.023390	82.581073	71.996033	350.414753	-191.663176	383.819699	139.039546	-272.962451	71.711317	182.855904	227.302641	75.411223	349.800020	39.302647	52.780919	294.828475	-330.978841	66.872366	221.062526	-145.938650	40.499054	215.103567	
1121	4.484000	-107.927144	1228.421450	382.669091	-94.374485	1244.842529	109.690547	-180.370316	1304.090023	238.330126	-14.912884	855.948269	361.315161	-16.529486	847.135782	124.682724	-256.218433	902.009964	234.532952	-115.377732	774.932027	449.329317	-119.508743	752.952039	46.967641	29.901398	462.549269	379.528373	-161.360770	455.118060	131.618530	29.640321	399.752289	379.880697	92.973158	71.957625	349.418223	-189.692944	383.718431	139.074713	-272.786915	71.983501	182.939649	238.543481	77.790804	349.409848	50.783083	52.284468	294.472724	-330.739319	67.420810	221.182078	-145.822003	40.545013	215.018779	
1122	4.488000	-103.786573	1227.731824	382.983476	-90.020925	1244.246244	109.796882	-176.046684	1303.457499	238.418296	-10.202961	855.408728	361.423373	-12.285343	846.584499	124.497503	-251.651824	901.318550	234.836236	-111.010015	774.195373	449.488252	-115.497321	752.575815	47.201712	32.994810	461.051166	379.722893	-158.943802	454.902798	131.624237	32.916214	398.481727	379.300565	103.447855	72.120398	348.945886	-187.682509	383.599907	139.113873	-272.582293	72.250694	183.008850	249.332234	80.193937	348.977983	61.854728	51.871669	294.174761	-330.511391	67.977704	221.271947	-145.729780	40.525693	215.012133	
1123	4.492000	-99.477187	1227.103114	383.195698	-85.674293	1243.650794	109.936327	-171.725497	1302.802086	238.519087	-5.387652	854.912102	361.528516	-8.069992	846.034169	124.342196	-247.022688	900.610924	235.133618	-106.717825	773.444057	449.746877	-111.483775	752.185404	47.456238	36.066648	459.558874	379.867882	-156.484246	454.676479	131.634116	36.655206	397.373438	379.043460	113.649972	72.375648	348.610610	-185.649917	383.472741	139.128879	-272.343755	72.532266	183.051288	259.677291	82.584888	348.491907	72.555371	51.519386	293.886453	-330.291778	68.560362	221.356571	-145.633623	40.493838	215.016752	
1124	4.496000	-95.061868	1226.494074	383.343995	-81.278712	1243.077755	110.066876	-167.383626	1302.153587	238.626733	-0.675513	854.419410	361.594975	-3.908333	845.514894	124.207601	-242.433086	899.933696	235.446215	-102.510378	772.586703	450.137228	-107.437328	751.751661	47.693595	39.162982	458.078921	379.968405	-153.965056	454.425454	131.646737	40.496610	396.341681	378.823578	123.422712	72.723322	348.371029	-183.599621	383.363098	139.132112	-272.101849	72.816163	183.080733	269.551784	84.905945	347.957104	82.691975	51.317535	293.677479	-330.079079	69.196746	221.438661	-145.541295	40.462118	215.014696	
1125	4.500000	-90.668142	1225.894928	383.510619	-76.875225	1242.488384	110.203989	-163.037211	1301.518679	238.757923	4.010539	853.889823	361.709833	0.448308	845.081449	124.028772	-237.782985	899.279714	235.763609	-97.532474	771.960020	450.241178	-103.418007	751.299322	47.917195	42.303480	456.659973	379.970640	-151.393339	454.187691	131.646693	44.436686	395.344436	378.568500	132.923365	72.871760	347.895086	-181.484014	383.255064	139.130101	-271.861255	73.107950	183.113813	278.971136	87.124921	347.406119	92.332043	51.177677	293.539286	-329.824805	69.855452	221.494824	-145.454288	40.428553	215.020895	
